<svg xmlns="http://www.w3.org/2000/svg" width="1584" height="396" viewBox="0 0 1584 396">
  <rect width="1584" height="396" fill="#F0ECE3"/>
  <rect x="0" y="0" width="1584" height="396" fill="none" stroke="#8B7E6A" stroke-width="1" opacity="0.15"/>

  <!-- Left accent bar -->
  <rect x="100" y="90" width="4" height="216" rx="2" fill="#C44B2F"/>

  <!-- Brand name -->
  <text x="124" y="180" font-family="'DM Sans', 'Helvetica Neue', Arial, sans-serif" font-size="52" font-weight="400" fill="#2C2824" letter-spacing="-0.5">Jay's Foundry</text>

  <!-- Tagline -->
  <text x="126" y="220" font-family="'DM Sans', 'Helvetica Neue', Arial, sans-serif" font-size="18" font-weight="400" fill="#8B7E6A" letter-spacing="2.5">BUILD THINGS. SHOW THE WORK. STAY CURIOUS.</text>

  <!-- Motif strip -->
  <rect x="126" y="250" width="4" height="14" rx="2" fill="#C44B2F"/>
  <circle cx="144" cy="252.5" r="2.5" fill="#8B7E6A" opacity="0.4"/>
  <circle cx="153" cy="252.5" r="2.5" fill="#8B7E6A" opacity="0.4"/>
  <circle cx="162" cy="252.5" r="2.5" fill="#C44B2F" opacity="0.6"/>
  <circle cx="144" cy="261.5" r="2.5" fill="#8B7E6A" opacity="0.3"/>
  <circle cx="153" cy="261.5" r="2.5" fill="#8B7E6A" opacity="0.3"/>
  <circle cx="162" cy="261.5" r="2.5" fill="#8B7E6A" opacity="0.3"/>
  <circle cx="184" cy="257" r="7.5" fill="none" stroke="#8B7E6A" stroke-width="1" opacity="0.5"/>
  <circle cx="184" cy="257" r="5" fill="#E8E3D9"/>
  <rect x="183" y="248.5" width="2" height="4" rx="1" fill="#C44B2F"/>
  <rect x="202" y="252" width="20" height="2" rx="1" fill="#8B7E6A" opacity="0.4"/>
  <rect x="202" y="256.5" width="20" height="2" rx="1" fill="#8B7E6A" opacity="0.3"/>
  <rect x="202" y="261" width="20" height="2" rx="1" fill="#8B7E6A" opacity="0.2"/>
  <circle cx="234" cy="257" r="3.5" fill="#C44B2F" opacity="0.5"/>
  <circle cx="250" cy="252.5" r="2.5" fill="#8B7E6A" opacity="0.3"/>
  <circle cx="259" cy="252.5" r="2.5" fill="#8B7E6A" opacity="0.3"/>
  <circle cx="268" cy="252.5" r="2.5" fill="#8B7E6A" opacity="0.3"/>
  <circle cx="250" cy="261.5" r="2.5" fill="#8B7E6A" opacity="0.4"/>
  <circle cx="259" cy="261.5" r="2.5" fill="#8B7E6A" opacity="0.4"/>
  <circle cx="268" cy="261.5" r="2.5" fill="#C44B2F" opacity="0.6"/>
  <rect x="282" y="250" width="4" height="14" rx="2" fill="#C44B2F" opacity="0.4"/>

  <!-- Scale markings (right side) -->
  <rect x="1300" y="110" width="8" height="34" rx="4" fill="#8B7E6A" opacity="0.4"/>
  <rect x="1332" y="98" width="8" height="46" rx="4" fill="#8B7E6A" opacity="0.55"/>
  <rect x="1364" y="86" width="8" height="58" rx="4" fill="#8B7E6A" opacity="0.7"/>
  <rect x="1390" y="72" width="8" height="72" rx="4" fill="#C44B2F"/>
  <rect x="1416" y="86" width="8" height="58" rx="4" fill="#8B7E6A" opacity="0.7"/>
  <rect x="1448" y="98" width="8" height="46" rx="4" fill="#8B7E6A" opacity="0.55"/>

  <!-- URL -->
  <text x="1484" y="360" font-family="'DM Mono', monospace" font-size="12" fill="#8B7E6A" opacity="0.5" text-anchor="end">jaysfoundry.com</text>
</svg>
