<svg xmlns="http://www.w3.org/2000/svg" viewBox="0 0 32 32" width="32" height="32">
  <rect width="32" height="32" rx="4" fill="#F0ECE3"/>
  <!-- J -->
  <path d="M5 8 L8 8 L8 20 Q8 24 5 24 L4 24 L4 22 L5 22 Q6 22 6 20 L6 8 Z" fill="#2C2A25"/>
  <!-- F -->
  <path d="M10 8 L21 8 L21 10 L13 10 L13 14 L19 14 L19 16 L13 16 L13 24 L10 24 Z" fill="#2C2A25"/>
  <!-- Dial knob -->
  <circle cx="26" cy="21" r="4" fill="none" stroke="#8B7E6A" stroke-width="1" opacity="0.4"/>
  <circle cx="26" cy="21" r="2.2" fill="#E8E3D9"/>
  <rect x="25.4" y="16.5" width="1.2" height="2.5" rx="0.6" fill="#C44B2F"/>
  <!-- Hatched accent lines -->
  <rect x="4" y="27.5" width="24" height="0.8" rx="0.4" fill="#C44B2F"/>
  <rect x="4" y="29.5" width="24" height="0.8" rx="0.4" fill="#C44B2F" opacity="0.5"/>
</svg>
