<svg xmlns="http://www.w3.org/2000/svg" viewBox="0 0 800 800" width="800" height="800">
  <rect width="800" height="800" fill="#F0ECE3"/>
  <!-- J — centered for circle crop safe zone -->
  <path d="M196 248 L264 248 L264 524 Q264 626 192 626 L156 626 L156 568 L192 568 Q208 568 208 524 L208 248 Z" fill="#2C2A25"/>
  <!-- F -->
  <path d="M328 248 L580 248 L580 300 L396 300 L396 400 L540 400 L540 452 L396 452 L396 600 L328 600 Z" fill="#2C2A25"/>
  <!-- Dial knob -->
  <circle cx="640" cy="556" r="64" fill="none" stroke="#8B7E6A" stroke-width="12" opacity="0.4"/>
  <circle cx="640" cy="556" r="38" fill="#E8E3D9"/>
  <rect x="634" y="480" width="12" height="40" rx="6" fill="#C44B2F"/>
  <!-- Hatched accent lines -->
  <rect x="120" y="696" width="560" height="6" rx="3" fill="#C44B2F"/>
  <rect x="120" y="714" width="560" height="6" rx="3" fill="#C44B2F" opacity="0.5"/>
</svg>
